<?xml version="1.0" encoding="utf-8"?>
<!-- Generator: Adobe Illustrator 24.0.1, SVG Export Plug-In . SVG Version: 6.00 Build 0)  -->
<svg version="1.1" id="Layer_1" xmlns="http://www.w3.org/2000/svg" xmlns:xlink="http://www.w3.org/1999/xlink" x="0px" y="0px"
	 viewBox="0 0 32 32" style="enable-background:new 0 0 32 32;" xml:space="preserve">
<style type="text/css">
	.st0{fill:#FFFFFF;}
</style>
<circle class="st0" cx="16" cy="16" r="16"/>
<path d="M13.9,17.3h1.3V24c0,0.4,0.3,0.7,0.7,0.7c0.4,0,0.7-0.3,0.7-0.7v-6.7h1.3c0.3,0,0.5-0.4,0.2-0.7l-2.1-2.1
	c-0.1-0.1-0.4-0.1-0.5,0l-2.1,2.1C13.4,16.9,13.6,17.3,13.9,17.3z M10,12c0,0.4,0.3,0.7,0.7,0.7c0,0,0.1,0,0.1,0h10.5
	c0.4,0,0.7-0.3,0.7-0.7s-0.4-0.7-0.7-0.7H10.8C10.4,11.2,10,11.5,10,12C10,11.9,10,12,10,12z"/>
</svg>
