<svg xmlns="http://www.w3.org/2000/svg" xmlns:xlink="http://www.w3.org/1999/xlink" viewBox="0 0 434.3 69.4"><path d="M20.9 0H7C3.1 0 0 3.1 0 7v14c0 3.9 3.1 7 7 7h14c3.9 0 7-3.1 7-7V7c-.1-3.9-3.2-7-7.1-7zm0 20.9H7v-14h14v14zm-7-12.7c-3.2 0-5.7 2.6-5.7 5.7 0 3.2 2.6 5.7 5.7 5.7 3.2 0 5.7-2.6 5.7-5.7a5.63 5.63 0 0 0-5.7-5.7z" fill="#004894"/><path d="M47.5 0l13.6 19.8V1H57V0h8.8v.9h-3.4V28l-.6.2L43.4 1.8v25h4.2v.9h-9.1v-.9h3.6V1h-3.6V0h9zm45.3 0v8.9h-1.2c-.1-1.4-.3-3.1-1.5-5.1-1.4-2.4-3.3-2.5-5.2-2.6h-2.2v25.6H87v.9H74.1v-.9h4.2V1.2h-1.8c-2.3 0-4 0-5.7 2.7C69.5 6 69.4 7.6 69.3 9h-1.1V0h24.6zM104 0l13.6 19.8V1h-4.1V0h8.8v.9h-3.4V28l-.6.2L99.9 1.8v25h4.2v.9H95v-.9h3.6V1H95V0h9zm33.5 0v.9h-3.9v18.3c0 3.9.1 7.6 7.4 7.6 7.4 0 7.9-3.2 8-6.7V1h-4V0h8.7v.9h-3.4v17.6c0 5.1-.1 9.5-10.3 9.5-1.5 0-4.9-.2-7.1-1.1-3.5-1.5-3.6-4.6-3.6-8.3V1h-3.4V0h11.6zM40.4 47.6h-2.3V47h13.7l.1 5.3h-.6c-.7-4.2-1.6-4.7-7.1-4.7H43V55h1.3c2.8 0 3-1 3-3.6h.7v8.2h-.7c0-3-.2-3.8-3-3.8H43v7.7h2.3v.7h-7.2v-.6h2.3v-16zm17.4 9.6c1-.2 1.7-.5 2.6-.8v-1c0-1.7-.3-2.7-1.9-2.7-1.2 0-2 .4-2 1.9 0 .9-.4 1.2-1.2 1.2-.6 0-1.1-.2-1.1-.9 0-2.3 2.3-2.9 4.2-2.9 3.7 0 4.4 1.5 4.4 3.5v6.1c0 1.8.6 1.8 1.9 1.8v.6H63c-1.3 0-2.3-.1-2.7-1.6-.9 1.4-2.1 1.8-3.7 1.8-2.5 0-3.3-1.3-3.3-3.5 0-2 1-2.9 3-3.4l1.5-.1zm.1.6c-1.4.4-1.9 1-1.9 3.1 0 1.5.3 2.8 1.6 2.8 2.1 0 2.8-2.6 2.8-4.3v-2.3l-2.5.7z"/><use xlink:href="#B"/><path d="M88 61.8c-.8 1.6-2.2 2.5-4.2 2.5-2.4 0-3.5-1-3.5-3.4v-8.1h-1.9v-.6h4.3v8.5c0 1.3.2 2.6 1.9 2.6 2.2 0 3.4-2.1 3.4-4.3v-6.2h-2.2v-.6h4.6v11.2h2.1v.6H88v-2.2zm5.4-14.9H98v16.6h2.1v.6h-6.6v-.6h2.1v-16h-2.1v-.6zm7.6 5.4h1.7v-3.2h2.4v3.2h2.7v.6h-2.7v8.4c0 1.4.3 2.1 1.3 2.1.9 0 1.3-.7 1.7-1.4l.6.2-.2.4c-.5.9-1.3 1.6-3 1.6-2.5 0-2.7-1.4-2.7-3v-8.4H101v-.5zm7.4 0h6.4v.6h-2l3.2 7.8 2.4-7.8h-2v-.6h4.6v.6h-1.9L115.4 65c-.9 2.9-1.8 4.3-3.9 4.3-1.4 0-2.2-1-2.2-2 0-.8.4-1.3 1.1-1.3.9 0 1.1.6 1.1 1.2s.1 1.2.8 1.2 1.6-.6 2.2-3l.4-1.4-4.8-11.2h-1.7v-.5zm26.1-.3c4.3 0 5.6 3.7 5.6 6.2 0 2.4-1.3 6.2-5.6 6.2s-5.6-3.7-5.6-6.2c0-2.4 1.4-6.2 5.6-6.2zm0 11.8c2.8 0 2.9-3 2.9-5.6 0-2.5 0-5.6-2.9-5.6-2.8 0-2.9 3-2.9 5.6.1 2.5.1 5.6 2.9 5.6zm7.4-10.9v-.6h2v-2.4c0-2.6 2-3.3 3.8-3.3 1.4 0 3.6.5 3.6 2.3a.94.94 0 0 1-1 1c-.8 0-1.1-.4-1.1-1.1 0-1-.3-1.6-1.3-1.6-1.3 0-1.5 1-1.5 2.4v2.7h2.3v.6h-2.3v10.6h1.9v.6h-6.4v-.6h2V52.9h-2zm22-6.3h.5l5.5 16.8h2.2v.6h-7.7v-.6h2.5l-1.6-5.4h-4.5l-1.8 5.4h2.5v.6h-5.4v-.6h2l5.8-16.8zm-.8 4.6l-2.1 6.1h4l-1.9-6.1z"/><use xlink:href="#C"/><use xlink:href="#B" x="117.4"/><path d="M197.7 63.5v-16h-2.1v-.6h4.5v7.7c.7-1.6 2.2-2.5 4.2-2.5 2.4 0 3.5 1 3.5 3.4v8.1h1.9v.6h-6.2v-.6h1.9v-7.9c0-1.3-.2-2.6-1.9-2.6-2.2 0-3.4 2.1-3.4 4.3v6.2h1.9v.6h-6.4v-.6h2.1zm15.2-10.6h-2.1v-.6h4.5v11.2h2.1v.6h-6.6v-.6h2.1V52.9zm1.2-5.8c.8 0 1.4.6 1.4 1.4s-.7 1.4-1.4 1.4c-.8 0-1.4-.7-1.4-1.4s.6-1.4 1.4-1.4z"/><use xlink:href="#D"/><path d="M229.9 57.5v.2c0 3.4.5 6 3.6 6 2.2 0 3.3-1.3 3.9-3.1l.5.2c-1 2.8-2.7 3.6-5.3 3.6-3.6 0-5.4-2.8-5.4-6.2 0-3.2 2.1-6.2 5.6-6.2 3.1 0 5.2 2.2 5.2 5.4h-8.1zm5.2-.8c0-1.7-.1-4.1-2.5-4.1-2.1 0-2.6 2.6-2.6 4.1h5.1z"/><use xlink:href="#B" x="173.9"/><use xlink:href="#D" x="33.7"/><path d="M269.9 61.8c-.8 1.6-2.2 2.5-4.2 2.5-2.4 0-3.5-1-3.5-3.4v-8.1h-1.9v-.6h4.3v8.5c0 1.3.2 2.6 1.9 2.6 2.2 0 3.4-2.1 3.4-4.3v-6.2h-2.2v-.6h4.6v11.2h2.1v.6h-4.5v-2.2z"/><use xlink:href="#C" x="102.7"/><path d="M289.5 57.5v.2c0 3.4.5 6 3.6 6 2.2 0 3.3-1.3 3.9-3.1l.5.2c-1 2.8-2.7 3.6-5.3 3.6-3.6 0-5.4-2.8-5.4-6.2 0-3.2 2.1-6.2 5.6-6.2 3.1 0 5.2 2.2 5.2 5.4h-8.1zm5.1-.8c0-1.7-.1-4.1-2.5-4.1-2.1 0-2.6 2.6-2.6 4.1h5.1zm16.7.5c1-.2 1.7-.5 2.6-.8v-1c0-1.7-.3-2.7-1.9-2.7-1.2 0-2 .4-2 1.9 0 .9-.4 1.2-1.2 1.2-.6 0-1.1-.2-1.1-.9 0-2.3 2.3-2.9 4.2-2.9 3.7 0 4.4 1.5 4.4 3.5v6.1c0 1.8.6 1.8 1.9 1.8v.6h-1.8c-1.3 0-2.3-.1-2.7-1.6-.9 1.4-2.1 1.8-3.7 1.8-2.5 0-3.3-1.3-3.3-3.5 0-2 1-2.9 3-3.4l1.6-.1zm.1.6c-1.4.4-1.9 1-1.9 3.1 0 1.5.3 2.8 1.6 2.8 2.1 0 2.8-2.6 2.8-4.3v-2.3l-2.5.7zm9.9 5.7V52.9h-2.1v-.6h4.5v2.3c.7-1.6 2.2-2.5 4.2-2.5 2.4 0 3.5 1 3.5 3.4v8.1h1.9v.6h-6.2v-.6h1.9v-7.9c0-1.3-.2-2.6-1.9-2.6-2.2 0-3.4 2.1-3.4 4.3v6.2h1.9v.6h-6.4v-.6h2.1zm22-1.1c-.6 1.2-1.9 2-3.4 2-3.3 0-4.7-2.9-4.7-6.2 0-4.4 2-6.2 4.5-6.2 1.6 0 2.8.5 3.5 2v-6.6h-2.4v-.6h4.8v16.6h2v.6h-4.4v-1.6zm.1-5.3c0-3.6-1.8-4.3-2.8-4.3-2.3 0-2.7 2.4-2.7 5.4 0 3.4.8 5.4 2.7 5.4 2.4 0 2.8-2.5 2.8-4.6v-1.9zm14.3-9.6h-2.2v-.6h9.6c5 0 7.5 3.4 7.5 8.6 0 4.4-1.8 8.6-7.4 8.6h-9.6v-.6h2.2v-16zm2.7 16h4.1c3.6 0 5-3.8 5-8 0-4.7-1.3-8-4.9-8h-4.2v16zm17.6-6v.2c0 3.4.5 6 3.6 6 2.2 0 3.3-1.3 3.9-3.1l.5.2c-1 2.8-2.7 3.6-5.3 3.6-3.6 0-5.4-2.8-5.4-6.2 0-3.2 2.1-6.2 5.6-6.2 3.1 0 5.2 2.2 5.2 5.4H378zm5.1-.8c0-1.7-.1-4.1-2.5-4.1-2.1 0-2.6 2.6-2.6 4.1h5.1zm13.3-.8h-.6c-.3-1.6-.9-3.1-3-3.1-1.1 0-2 .5-2 1.7 0 3 6.6 1.4 6.6 6.3 0 2.4-2.4 3.6-4.5 3.6-1.4 0-2.8-.3-4.1-.7v-3.9h.7c0 2.2 1.1 4.1 3.4 4.1 1.2 0 2.6-.7 2.6-2.1 0-3.1-6.4-1.9-6.4-6 0-2.3 1.8-3.6 3.8-3.6 1.3 0 2.4.4 3.5.7v3zm4.6-3h-2.1v-.6h4.5v11.2h2.1v.6h-6.6v-.6h2.1V52.9zm1.2-5.8c.8 0 1.4.6 1.4 1.4s-.7 1.4-1.4 1.4-1.4-.7-1.4-1.4.6-1.4 1.4-1.4zm13.7 5.9c.4-.6.9-1 1.8-1 .7 0 1.4.5 1.4 1.4 0 .6-.2 1.1-.8 1.1-1.3 0-.5-1.6-1.3-1.6-.3 0-.7.4-.7.7.4.7.6 1.3.6 2.1 0 2.4-1.8 3.8-4.1 3.8-1 0-2-.3-2.8-.7-.7 0-1.7.7-1.7 1.5 0 .9.7 1.1 2.1 1.1l4.2-.1c2.5 0 4.2 1 4.2 3.8 0 3.3-3 4.3-5.7 4.3-2.1 0-5.6-.5-5.6-3.4 0-1.4 1.2-2.1 2.3-2.3-1.5-.3-2.4-1.4-2.4-2.8s1-2.3 2.2-2.7c-.6-.9-.8-1.5-.8-2.5 0-2.3 1.9-3.6 3.9-3.6 1.1-.1 2.3.2 3.2.9zm-6.8 13.1c0 1.9 1.7 2.5 4.2 2.5 2.2 0 4.6-.9 4.6-2.7 0-1.9-1.2-2.2-3.6-2.2-3.4 0-5.2.2-5.2 2.4zm3.6-7.1c1.7 0 1.8-1.8 1.8-3.1 0-1.4 0-3.2-1.8-3.2s-1.9 1.4-1.9 2.9c.1 1.2.2 3.4 1.9 3.4zm9.5 4.5V52.9h-2.1v-.6h4.5v2.3c.7-1.6 2.2-2.5 4.2-2.5 2.4 0 3.5 1 3.5 3.4v8.1h1.9v.6H428v-.6h1.9v-7.9c0-1.3-.2-2.6-1.9-2.6-2.2 0-3.4 2.1-3.4 4.3v6.2h1.9v.6h-6.4v-.6h2.1z"/><defs ><path id="B" d="M77.5 60.4c-1.1 3.2-3 4-5.2 4-3.5 0-5.6-2.9-5.6-6.2 0-3.4 2.4-6.2 5.8-6.2 2.2 0 4.7 1.3 4.7 3.4 0 1-.6 1.3-1.3 1.3-.9 0-1.2-.6-1.2-1.2v-.8c0-1.3-.8-2.1-2.3-2.1-2.4 0-3 2.4-3 5.6 0 1.9.2 5.4 3.6 5.4 2.2 0 3.3-1.3 4-3.5l.5.3z"/><path id="C" d="M174.6 52.9h-2.1v-.6h4.5v2.8c.5-1.4 1.5-3 3.4-3 1.4 0 2.2.9 2.2 2.3 0 1-.4 1.6-1.2 1.6-.6 0-1.2-.5-1.2-1.2 0-.3.1-.9.1-1.2s-.2-.6-.6-.6c-1.2 0-2.7 2.7-2.7 5.3v5.3h2v.6h-6.5v-.6h2.1V52.9z"/><path id="D" d="M218.4 52.3h1.7v-3.2h2.4v3.2h2.7v.6h-2.7v8.4c0 1.4.3 2.1 1.3 2.1.9 0 1.3-.7 1.7-1.4l.6.2-.2.4c-.5.9-1.3 1.6-3 1.6-2.5 0-2.7-1.4-2.7-3v-8.4h-1.7v-.5z"/></defs></svg>