<?xml version="1.0" encoding="utf-8"?>
<!-- Generator: Adobe Illustrator 24.0.1, SVG Export Plug-In . SVG Version: 6.00 Build 0)  -->
<svg version="1.1" id="Layer_1" xmlns="http://www.w3.org/2000/svg" xmlns:xlink="http://www.w3.org/1999/xlink" x="0px" y="0px"
	 viewBox="0 0 27.9 27.9" style="enable-background:new 0 0 27.9 27.9;" xml:space="preserve">
<style type="text/css">
	.st0{fill:#FFFFFF;}
	.st1{fill:#004894;}
</style>
<rect x="4.9" y="4.8" class="st0" width="18.8" height="18.8"/>
<path class="st1" d="M20.9,0H7C3.1,0,0,3.1,0,7v14c0,3.9,3.1,7,7,7h14c3.9,0,7-3.1,7-7V7C27.9,3.1,24.8,0,20.9,0z M20.9,20.9H7V7h14
	v13.9H20.9z M13.9,8.2c-3.2,0-5.7,2.6-5.7,5.7c0,3.2,2.6,5.7,5.7,5.7c3.2,0,5.7-2.6,5.7-5.7S17.1,8.2,13.9,8.2z"/>
</svg>
